<svg id="Layer_1" data-name="Layer 1" xmlns="http://www.w3.org/2000/svg" viewBox="0 0 463.58 97.17"><defs><style>.cls-1{fill:#7d7ab8;}.cls-2{fill:#f8faff;}.cls-3{fill:#0f1131;}.cls-4{fill:#c89665;}.cls-5{fill:#eceded;}.cls-6{fill:#121433;}</style></defs><path class="cls-1" d="M749.63,588.53c-1.33-.69-2.83-.56-4.24-.84A20.46,20.46,0,0,1,729,570.12a76,76,0,0,1-.59-9.65c0-14.91,0-29.83.09-44.74,0-5.25.71-10.45,3.89-15A20.55,20.55,0,0,1,747.19,492a79.91,79.91,0,0,1,10.26-.59c14.18,0,28.35,0,42.53.07a40.58,40.58,0,0,1,9.62,1,20.48,20.48,0,0,1,15.71,17.69,82.46,82.46,0,0,1,.57,9.94c0,14.28,0,28.56-.07,42.84,0,4.77-.31,9.6-2.62,14A20.35,20.35,0,0,1,807.37,588a16.73,16.73,0,0,0-3.86.56Zm30.5-14.93c.44,0,.88,0,1.32,0a2.28,2.28,0,0,0,2.19-2.71,3.36,3.36,0,0,1,.34-2.24,99.93,99.93,0,0,1,11.77-20.09c3.59-4.77,7.67-9.16,11.13-14,2.55-3.59,5-7.26,6.11-11.61,1.27-5.15-2.17-8.92-7.39-8.09-4.11.65-8.19,1.5-12.29,2.22-6.51,1.14-12.94,1.44-19.1-1.72a10.83,10.83,0,0,0-6.62-.92c-4.26.62-8.52,1.26-12.77,2-6.5,1.07-8.74,3.16-10,9.68-.77,3.93-1.27,7.91-1.82,11.87-.77,5.66-1.8,11.29-1.93,17a8.39,8.39,0,0,0,5,8.22,21.26,21.26,0,0,0,14.46,1.7,4.39,4.39,0,0,1,4.74,1.58A21.14,21.14,0,0,0,780.13,573.6Z" transform="translate(-728.42 -491.36)"/><path class="cls-2" d="M932.9,536.32a18,18,0,0,1,6.83-6.05,13,13,0,0,1,8.88-.89c4.1,1,6.06,3.84,6.92,7.94a15.35,15.35,0,0,1,3.33-4.63,13.47,13.47,0,0,1,13.8-3c4.33,1.35,5.92,4.87,6.32,9,.6,6,.16,12.12.26,18.18,0,2.49.06,2.6,2.57,2.51,1.29,0,1.92.23,1.67,1.63a5.94,5.94,0,0,0,0,1.46c0,.65-.11,1-.87,1-1.47-.05-3,0-4.42,0-2.5-.14-3.59-1.32-3.6-3.86,0-5.48,0-11,0-16.44a22.42,22.42,0,0,0-.27-3.65c-.74-4.91-4.32-7.3-9.12-5.94-4.35,1.23-6.77,4.42-8.25,8.47a16.52,16.52,0,0,0-.85,5.63c0,4.84,0,9.68,0,14.53,0,1-.25,1.32-1.29,1.31-3.36,0-3.35,0-3.36-3.36,0-6.6.1-13.21-.16-19.81-.24-6.15-5.23-8.94-10.79-6.14-5.09,2.56-7.3,7.06-7.46,12.56-.14,5.08-.06,10.18,0,15.26,0,1.11-.22,1.52-1.43,1.49-3.27-.06-3.27,0-3.27-3.27V536.28c0-2.22-.24-2.45-2.41-2.5-.6,0-1.56.35-1.74-.28a7.71,7.71,0,0,1,0-3.48c.06-.33.5-.2.78-.2,1.47,0,2.94,0,4.41,0,2.22.07,3.33,1.12,3.5,3.32C933,534.2,932.9,535.26,932.9,536.32Zm0,.3s-.08.06-.08.09,0,.07.07.11.08-.07.09-.1S933,536.65,932.94,536.62Z" transform="translate(-728.42 -491.36)"/><path class="cls-2" d="M864.44,564.23a20.23,20.23,0,0,1-13.94-5.71c-.74-.68-.9-1.23-.07-2s1.29-2,2.07-2.15,1.51,1.15,2.31,1.76c3.74,2.84,7.86,4.42,12.61,3.32a7.84,7.84,0,0,0,6.38-6.16c.75-3.34-.48-6-3.16-8.11a33.33,33.33,0,0,0-6.52-3.64,48.44,48.44,0,0,1-8.26-4.4c-7.14-5.2-6.77-15,.89-19.34,5.78-3.23,11.79-2.89,17.56.16a7.1,7.1,0,0,1,3.54,8.66c-.45,1.33-2.33.29-3.53.54-.57.12-1-.06-.89-.76,0-.29,0-.59,0-.88a4,4,0,0,0-2.14-3.89c-3.39-2.19-9.29-2-12.56.29a6.65,6.65,0,0,0-.76,10.63,18.65,18.65,0,0,0,4.94,3.11c3.52,1.68,7.2,3.05,10.46,5.27A12.51,12.51,0,0,1,876,559.45C872.92,563,868.94,564.23,864.44,564.23Z" transform="translate(-728.42 -491.36)"/><path class="cls-2" d="M1054.65,557.15a12.55,12.55,0,0,1-17.17,5.77,8.85,8.85,0,0,1-5.51-7.86,9.25,9.25,0,0,1,4.6-9.16c3.93-2.41,8.35-2.92,12.83-3.16,1.27-.07,2.55-.09,3.82,0,.86,0,1.24-.13,1.18-1.1a18.42,18.42,0,0,0-.53-3.76,5.9,5.9,0,0,0-4.78-4.6,14.46,14.46,0,0,0-7.69.35c-1.46.49-2.37,1.36-2.17,3,.13,1-.16,1.44-1.33,1.42-3.31-.07-3.29,0-3.12-3.31a4.16,4.16,0,0,1,2.46-3.72c5.51-2.62,11.15-2.91,16.71-.25,3.07,1.47,4.34,4.37,4.83,7.6a25.92,25.92,0,0,1,.28,3.94c0,5,0,10,0,15,0,1.87.27,2.14,2.08,2.16,2.14,0,2,0,2.17,2.14.1,1.51-.32,2.1-1.89,1.91-1.21-.15-2.45,0-3.67-.12-2-.2-3-1.2-3.08-3.23C1054.61,559.27,1054.65,558.42,1054.65,557.15Zm-.28-8.21c0-2.63,0-2.67-1.93-2.62s-3.81.1-5.71.28a16.46,16.46,0,0,0-6.61,1.79,6.15,6.15,0,0,0,1,11.42,8.54,8.54,0,0,0,8.08-1.2A12.93,12.93,0,0,0,1054.37,548.94Z" transform="translate(-728.42 -491.36)"/><path class="cls-2" d="M1131.59,529.82c-4.21,5.06-7.79,10.25-12.13,14.86a10.08,10.08,0,0,1,2.13,2.86c1.8,3.24,3.7,6.43,5.41,9.72a3.44,3.44,0,0,0,3.75,2.15c1.2-.14,1.73.13,1.65,1.53-.13,2.5,0,2.36-2.6,2.54-3.36.24-5.52-1-7-4.1-1.72-3.55-3.89-6.88-5.7-10.39a4.15,4.15,0,0,0-4.14-2.4c-2.94,0-2.94,0-2.94,2.85,0,4.26,0,8.51,0,12.77,0,.9-.15,1.26-1.18,1.26-3.51,0-3.51,0-3.51-3.49V523c0-2.42-.09-2.49-2.45-2.53-.58,0-1.54.39-1.68-.32a14.57,14.57,0,0,1,0-3.49c0-.08.42-.19.64-.19,1.57,0,3.15-.07,4.71,0,2.47.16,3.4,1.18,3.41,3.66,0,4.64,0,9.29,0,13.94,0,2.5,0,5,0,7.49,0,.72.14,1.07,1,1s1.77,0,2.65,0a4.85,4.85,0,0,0,4-2.06c2.45-3.24,5-6.43,7.39-9.68a2.29,2.29,0,0,1,2.2-1.05C1128.58,529.88,1129.93,529.82,1131.59,529.82Z" transform="translate(-728.42 -491.36)"/><path class="cls-2" d="M1152.77,546.85c-3.92,0-7.85,0-11.77,0-.82,0-1,.16-1,1,.46,9.91,11.08,15.39,20,10.3.51-.29,1-.69,1.49-.94s1.11-1.47,1.69-1a11.61,11.61,0,0,1,2,3.05c.06.1-.36.53-.62.74-10.21,8.13-26.26,4.08-29.08-9.46-1.59-7.59,1.34-15.38,7.37-19.16s14.38-3.18,18.87,1.54c3.47,3.64,4.4,8.15,4.13,13,0,.87-.52.87-1.16.87C1160.72,546.84,1156.74,546.85,1152.77,546.85Zm-2.11-3.68h9.41c.53,0,1,.1,1-.79a9.65,9.65,0,0,0-6.78-9.12c-6.09-1.75-13,2.73-14,9-.14.92.27.94.94.93Z" transform="translate(-728.42 -491.36)"/><path class="cls-2" d="M912.31,556.68c-3.3,4.86-7.53,7.58-13.36,7.54-6.76,0-10.5-3.48-10.93-10.21-.38-5.81-.09-11.64-.16-17.45,0-2.6-.16-2.85-2.71-2.73-1.34.06-1.64-.36-1.58-1.62.1-2.39,0-2.4,2.49-2.4h2.5c2.71,0,3.89,1.13,3.91,3.82,0,5.62,0,11.25,0,16.87a22.74,22.74,0,0,0,.28,3.5c.67,4.14,3.34,6.18,7.56,5.86,6-.46,10.46-4.7,11.52-10.9a21,21,0,0,0,.31-3.64c0-4.79,0-9.59,0-14.38,0-.85.14-1.16,1.1-1.16,3.59,0,3.59,0,3.59,3.53v23.92c0,2,.17,2.17,2.17,2.18h1.33c.27,0,.67-.07.68.33,0,1.12,0,2.25,0,3.37,0,.38-.43.32-.71.32-1.67,0-3.34,0-5-.12a2.94,2.94,0,0,1-3-3.18C912.26,559,912.31,557.84,912.31,556.68Z" transform="translate(-728.42 -491.36)"/><path class="cls-2" d="M1096.09,555.35c.19.27.4.54.58.82,1.81,2.84,1.81,2.84-.93,4.77-8.88,6.28-23.89,3.75-27.64-8.76-3.64-12.15,4.81-23.45,17.4-23.18a16.87,16.87,0,0,1,8.69,2.36,6.67,6.67,0,0,1,2.89,7.43c-.06.19-.1.4-.32.4-1.22,0-2.45,0-3.67,0-.53,0-.41-.5-.38-.79.36-2.68-1.35-3.75-3.49-4.49a12.75,12.75,0,0,0-16.83,9.59c-1.44,7.16,2,13.69,8.43,15.8,4.88,1.6,9.36.61,13.44-2.4C1094.89,556.42,1095.46,555.88,1096.09,555.35Z" transform="translate(-728.42 -491.36)"/><path class="cls-2" d="M991.07,543.91c0-3,0-6.07,0-9.1,0-.89-.22-1.27-1.14-1.13a9.68,9.68,0,0,1-1.32,0c-2,0-1.87,0-2-2-.1-1.49.29-2.14,1.86-1.88.57.09,1.18,0,1.76,0,.74.07.9-.24.89-.92,0-2.45,0-4.9,0-7.34,0-.78.15-1.1,1-1.13,3.51-.09,3.51-.12,3.51,3.35,0,1.71,0,3.42,0,5.13,0,.71.2.93.91.91,2.16,0,4.32,0,6.48,0,.8,0,1.08.16,1.09,1,0,2.86.06,2.86-2.78,2.86-1.52,0-3,0-4.56,0-.78,0-1.15.13-1.14,1,.07,5.82,0,11.64.15,17.46.14,4.74,3.09,7.43,7.87,7.31,1.12,0,1.14.43,1.14,1.25,0,3.13,0,3.13-3,2.92-6.67-.47-10.54-4.52-10.67-11.22C991,549.59,991.07,546.75,991.07,543.91Z" transform="translate(-728.42 -491.36)"/><path class="cls-2" d="M1179.7,537.41a23,23,0,0,1,1.88-3.41,10.18,10.18,0,0,1,9.33-4.5c.75,0,1,.28,1,1-.07,1.08.31,2.31-.11,3.19-.51,1.07-1.88.23-2.87.43-4.09.82-6.41,3.52-7.91,7.12a21.23,21.23,0,0,0-1.49,8.3c0,4.21,0,8.41,0,12.61,0,1.06-.32,1.29-1.32,1.28-3.29,0-3.29,0-3.29-3.27q0-11.88,0-23.76c0-2.44-.22-2.74-2.7-2.61-1.4.07-1.69-.41-1.64-1.7.1-2.31,0-2.32,2.42-2.32,1,0,2.06,0,3.09,0a3.19,3.19,0,0,1,3.36,3.46c0,1.32,0,2.64,0,4C1179.52,537.27,1179.57,537.29,1179.7,537.41Z" transform="translate(-728.42 -491.36)"/><path class="cls-2" d="M1017.63,537.92a17.13,17.13,0,0,1,3.1-5.15,10,10,0,0,1,8.3-3.27c.83.06,1.17.35,1.07,1.16a3.23,3.23,0,0,0,0,.44c0,.93.29,2-.11,2.74s-1.67.17-2.56.29a9.58,9.58,0,0,0-6.89,4.5c-2.34,3.47-2.86,7.42-2.9,11.47s0,8.12,0,12.18c0,.86-.16,1.18-1.12,1.19-3.42,0-3.42.07-3.42-3.28q0-11.88,0-23.77c0-2.37-.25-2.73-2.58-2.59-1.51.09-2.13-.39-1.75-1.82.19-.74-.81-2,.73-2.16a35.83,35.83,0,0,1,4.86,0c2,.11,3.08,1.21,3.22,3.27,0,.73,0,1.47,0,2.2S1017.63,536.78,1017.63,537.92Z" transform="translate(-728.42 -491.36)"/><path class="cls-3" d="M780.13,573.6a21.14,21.14,0,0,1-14.82-7.17,4.39,4.39,0,0,0-4.74-1.58,21.26,21.26,0,0,1-14.46-1.7,8.39,8.39,0,0,1-5-8.22c.13-5.74,1.16-11.37,1.93-17,.55-4,1-7.94,1.82-11.87,1.26-6.52,3.5-8.61,10-9.68,4.25-.7,8.51-1.34,12.77-2a10.83,10.83,0,0,1,6.62.92c6.16,3.16,12.59,2.86,19.1,1.72,4.1-.72,8.18-1.57,12.29-2.22,5.22-.83,8.66,2.94,7.39,8.09-1.08,4.35-3.56,8-6.11,11.61-3.46,4.88-7.54,9.27-11.13,14A99.93,99.93,0,0,0,784,568.64a3.36,3.36,0,0,0-.34,2.24,2.28,2.28,0,0,1-2.19,2.71C781,573.63,780.57,573.6,780.13,573.6Zm16.58-31.43c3.86-4.55,7.72-9.1,10.73-14.28.55-1,1.16-1.78-.1-2.7a2,2,0,0,1-.55-1.77c.06-1.19-.42-1.63-1.67-1.51-2.16.21-2.77-.19-3.48-2.28-.28-.78-.66-.79-1.29-.67q-6.78,1.37-13.65,2.06c-4.36.07-8.63-.39-12.58-2.39-3.47-1.76-7-1.18-10.52-.43.29,1,.57,1.89.78,2.79,1.08,4.61,1.44,9.37,3,13.88,1.36,4,2.95,7.88,4.11,11.91,1.57,5.41,1.53,10.66-2.89,15-.36.34-.39.59,0,1,3,3.08,6.47,5.37,10.89,5.9a1.2,1.2,0,0,0,1.48-.8A107.46,107.46,0,0,1,796.71,542.17Z" transform="translate(-728.42 -491.36)"/><path class="cls-2" d="M932.94,536.62s.08.07.08.1-.06.07-.09.1-.07-.07-.07-.11S932.91,536.65,932.94,536.62Z" transform="translate(-728.42 -491.36)"/><path class="cls-4" d="M796.71,542.17a107.46,107.46,0,0,0-15.79,25.65,1.2,1.2,0,0,1-1.48.8c-4.42-.53-7.86-2.82-10.89-5.9-.36-.36-.33-.61,0-1,4.42-4.33,4.46-9.58,2.89-15-1.16-4-2.75-7.94-4.11-11.91-1.54-4.51-1.9-9.27-3-13.88-.21-.9-.49-1.79-.78-2.79,3.55-.75,7-1.33,10.52.43,4,2,8.22,2.46,12.58,2.39a12.88,12.88,0,0,0,0,5.21A22.17,22.17,0,0,0,796.71,542.17Zm-19.28-10.29a2.29,2.29,0,0,0,2.57-2.2,2.38,2.38,0,0,0-2.42-2.55,2.61,2.61,0,0,0-2.59,2.45A2.2,2.2,0,0,0,777.43,531.88Z" transform="translate(-728.42 -491.36)"/><path class="cls-5" d="M796.71,542.17a22.17,22.17,0,0,1-10-15.94,12.88,12.88,0,0,1,0-5.21q6.87-.71,13.65-2.06c.63-.12,1-.11,1.29.67.71,2.09,1.32,2.49,3.48,2.28,1.25-.12,1.73.32,1.67,1.51a2,2,0,0,0,.55,1.77c1.26.92.65,1.74.1,2.7C804.43,533.07,800.57,537.62,796.71,542.17Z" transform="translate(-728.42 -491.36)"/><path class="cls-6" d="M777.43,531.88a2.2,2.2,0,0,1-2.44-2.3,2.61,2.61,0,0,1,2.59-2.45,2.38,2.38,0,0,1,2.42,2.55A2.29,2.29,0,0,1,777.43,531.88Z" transform="translate(-728.42 -491.36)"/></svg>